<?xml version="1.0" encoding="utf-8"?>
<!-- Generator: Adobe Illustrator 19.0.0, SVG Export Plug-In . SVG Version: 6.00 Build 0)  -->
<svg version="1.1" id="Layer_1" xmlns="http://www.w3.org/2000/svg" xmlns:xlink="http://www.w3.org/1999/xlink" x="0px" y="0px"
	 viewBox="131 -131 512 512" style="enable-background:new 131 -131 512 512;" xml:space="preserve">
<g id="XMLID_8_">
	<path id="XMLID_15_" d="M641.4-33.1L524.2-131l-32.9,38.5L608.5,6.2L641.4-33.1z M282.7-92.5L249.8-131L132.6-33.1l32.9,38.5
		L282.7-92.5z M399.8,24.7h-38.5v152.5l120.4,72.2l19.3-31.3l-101.1-59.4L399.8,24.7L399.8,24.7z M387-76.4
		c-126,0-228.7,102.7-228.7,228.7S260.2,381,387,381c126,0,228.7-102.7,228.7-228.7S513-76.4,387-76.4z M387,329.6
		c-98.7,0-178.2-79.4-178.2-178.2C208.8,53.5,288.2-26,387-26s178.2,79.4,178.2,178.2C565.2,250.2,485.7,329.6,387,329.6z"/>
</g>
</svg>
